<svg xmlns="http://www.w3.org/2000/svg" width="619.014" height="91.001" viewBox="0 0 619.014 91.001">
  <path id="icon02_2" d="M44.58,173.513a44.76,44.76,0,0,0,35.449-16.919,36.749,36.749,0,0,1,28.835-13.406h4.189c11.535,0,22.165,5.5,29.6,14.329a44.821,44.821,0,0,0,68.646,0c7.433-8.831,18.065-14.329,29.6-14.329h4.183c11.533,0,22.164,5.5,29.6,14.329a44.822,44.822,0,0,0,68.647,0c7.432-8.831,18.064-14.329,29.6-14.329H377.1c11.534,0,22.166,5.5,29.6,14.329a44.822,44.822,0,0,0,68.647,0c7.432-8.831,18.064-14.329,29.6-14.329h4.19a36.749,36.749,0,0,1,28.834,13.406,44.761,44.761,0,0,0,35.45,16.919,45,45,0,0,0-.37-90,44.737,44.737,0,0,0-34.323,16c-7.433,8.83-18.064,14.328-29.6,14.328h-4.182c-11.534,0-22.166-5.5-29.6-14.328a44.82,44.82,0,0,0-68.647,0c-7.432,8.83-18.063,14.328-29.6,14.328h-4.181c-11.535,0-22.167-5.5-29.6-14.328a44.82,44.82,0,0,0-68.647,0c-7.432,8.83-18.064,14.328-29.6,14.328H240.9c-11.534,0-22.166-5.5-29.6-14.328a44.819,44.819,0,0,0-68.646,0c-7.433,8.83-18.063,14.328-29.6,14.328H108.87c-11.534,0-22.165-5.5-29.6-14.328A44.911,44.911,0,0,0,.051,130.665,45.342,45.342,0,0,0,44.58,173.513" transform="translate(0.506 -83.014)" fill="none" stroke="#fff" stroke-miterlimit="10" stroke-width="1"/>
</svg>
