<svg xmlns="http://www.w3.org/2000/svg" width="284.975" height="290" viewBox="0 0 284.975 290">
  <path id="icon01_2" d="M20611.51-12886.849l-.59-4.58-.307-101.633-7.922-.872-22.311,99.156-1.16-.26,22.309-99.162-7.521-2.606-44.361,92.045-.533-.851,43.813-91.7-6.756-4.214-63.592,79.873-.461-.966,63.119-79.649-5.65-5.612-79.633,63.733-.373-1.06,79.264-63.608-4.26-6.731-91.689,44.436-.262-1.128,91.436-44.378-2.652-7.513-99.158,22.938-.131-1.176,99.021-22.918-.92-7.915-101.637.313v-1.191l101.637-.313.867-7.915-99.156-22.316.264-1.16,99.152,22.317,2.613-7.53-92.016-44.152.82-.736,91.7,43.813,4.213-6.761-79.648-63.118.74-.936,79.645,63.119,5.619-5.649-63.609-79.259.932-.747,63.605,79.264,6.736-4.256-44.379-91.435,1.07-.517,44.385,91.439,7.51-2.658-22.922-99.021,1.156-.267,22.916,99.006,7.914-.914-.127-102.07,1.01.438.307,101.647,7.922.867,22.316-99.167,1.158.261-22.312,99.151,7.525,2.605,44.352-92.035.539.852-43.82,91.705,6.762,4.221,63.592-79.886.467.967-63.125,79.648,5.65,5.619,79.635-63.739.375,1.06-79.268,63.608,4.262,6.731,91.688-44.436.262,1.128-91.434,44.383,2.652,7.509,99.152-22.933.135,1.169-99.01,22.918.912,7.915,101.633-.309v1.191l-101.633.308-.867,7.921,99.152,22.312-.262,1.159-99.154-22.316-2.613,7.53,91.713,43.817-.512,1.076-91.705-43.818-4.221,6.756,79.656,63.128-.744.93-79.641-63.118-5.621,5.65,63.6,79.264,3.129-2.513-4.053,3.259-63.607-79.263-6.732,4.256,44.373,91.429-1.07.517-44.377-91.43-7.508,2.653,22.918,99.016-1.156.267-22.922-99.016-7.916.913-.3,102.232h-.057l.07,3.991Z" transform="translate(-20468.592 13176.849)" fill="#fff"/>
</svg>
